# xmcd
#
# Track frame offsets: 
#        150
#        10416
#        22415
#        34867
#        48724
#        62684
#        73195
#        85083
#        96862
#        109442
#        122041
#        136021
#        147075
#        161621
#        175437
#        189981
#        200532
#        213894
#        225323
#        236723
#
# Disc length: 3319 seconds
#
# Revision: 3
# Processed by: cddbd v1.5.2PL0 Copyright (c) Steve Scherf et al.
# Submitted via: ExactAudioCopyFreeDBPlugin 1.0
#
DISCID=210cf514
DTITLE=Various Artist - Kings of the Blues Guitar:  B.B. King - Fredd
DTITLE=y King - Albert King [Not Now Music]
DYEAR=2013
DGENRE=Blues
TTITLE0=Freddy King - See See Baby
TTITLE1=Freddy King - Hideaway
TTITLE2=Freddy King - Takin Care of Business
TTITLE3=Freddy King - Butterscotch
TTITLE4=Freddy King - Have You Ever Loved a Woman
TTITLE5=Freddy King - You Know That You Love Me
TTITLE6=Freddy King - San-Ho-Zay
TTITLE7=Freddy King - I'm Tore Down
TTITLE8=Freddy King - Lonesome Whistle Blues
TTITLE9=Freddy King - I Love the Woman
TTITLE10=Freddy King - Side Tracked
TTITLE11=Freddy King - Let Me Be
TTITLE12=Freddy King - The Stumble
TTITLE13=Freddy King - It's Too Bad Things are Going So Tough
TTITLE14=Freddy King - You've Got to Love Her with a Feeling
TTITLE15=Freddy King - Swooshy
TTITLE16=Freddy King - If You Believe
TTITLE17=Freddy King - Just Pickin'
TTITLE18=Freddy King - Heads Up
TTITLE19=Freddy King - You Mean Mean Woman
EXTD=
EXTT0=
EXTT1=
EXTT2=
EXTT3=
EXTT4=
EXTT5=
EXTT6=
EXTT7=
EXTT8=
EXTT9=
EXTT10=
EXTT11=
EXTT12=
EXTT13=
EXTT14=
EXTT15=
EXTT16=
EXTT17=
EXTT18=
EXTT19=
PLAYORDER=
